<?xml version="1.0" standalone="no"?>
<!DOCTYPE svg PUBLIC "-//W3C//DTD SVG 20010904//EN"
 "http://www.w3.org/TR/2001/REC-SVG-20010904/DTD/svg10.dtd">
<svg version="1.0" xmlns="http://www.w3.org/2000/svg"
 width="77.000000pt" height="40.000000pt" viewBox="0 0 77.000000 40.000000"
 preserveAspectRatio="xMidYMid meet">
<metadata>
Created by potrace 1.16, written by Peter Selinger 2001-2019
</metadata>
<g transform="translate(0.000000,40.000000) scale(0.021389,-0.010363)"
fill="#000000" stroke="none">
<path d="M3170 2798 c-72 -49 -113 -149 -113 -278 0 -119 49 -251 103 -280 20
-11 20 -18 18 -338 l-3 -326 -40 -12 -40 -11 43 -7 42 -8 0 -153 0 -153 -47
-19 c-71 -27 -171 -23 -257 10 -129 51 -248 147 -441 358 -102 111 -244 163
-385 139 -73 -12 -169 -53 -225 -96 l-34 -26 -33 25 c-54 42 -156 85 -228 97
-132 22 -275 -25 -366 -122 -28 -29 -84 -89 -125 -132 -80 -85 -204 -183 -281
-222 -105 -53 -229 -65 -315 -29 l-33 14 0 154 0 155 38 9 37 10 -37 8 -38 7
0 312 0 311 30 29 c72 67 92 158 88 391 -3 134 -5 160 -18 160 -13 0 -15 -24
-18 -147 l-3 -148 -29 0 -30 0 0 151 c0 138 -1 150 -17 147 -16 -3 -18 -20
-21 -151 l-3 -147 -24 0 -24 0 -3 147 c-3 131 -5 148 -20 151 -16 3 -18 -11
-20 -145 l-3 -148 -27 -3 -27 -3 -3 148 c-3 134 -5 148 -21 151 -18 4 -19 -7
-15 -205 l3 -208 33 -68 c19 -37 44 -75 58 -83 l24 -16 0 -303 0 -303 -61 -7
c-112 -13 -157 -78 -146 -214 22 -273 192 -489 437 -557 97 -27 278 -29 421
-5 330 54 614 186 765 355 l57 64 39 -48 c139 -175 466 -328 800 -374 220 -31
370 -15 513 54 76 36 164 111 210 177 63 90 115 259 115 371 0 111 -44 164
-148 178 l-52 7 0 314 0 315 40 45 c137 156 86 516 -77 549 -20 4 -38 -1 -63
-18z"/>
<path d="M990 520 c-43 -10 -80 -52 -80 -90 0 -41 36 -77 105 -103 55 -21 60
-26 60 -53 0 -28 -1 -29 -50 -28 -27 1 -63 3 -80 5 -26 4 -30 1 -33 -23 -4
-35 28 -50 113 -51 70 -1 99 12 121 54 31 62 -1 112 -96 147 -59 21 -77 39
-66 67 5 15 15 17 64 13 31 -3 65 -9 75 -13 14 -6 17 -2 17 28 0 31 -3 36 -30
41 -65 13 -86 14 -120 6z"/>
<path d="M340 351 l0 -171 35 0 35 0 0 65 c0 64 0 65 28 65 23 0 32 -9 61 -65
31 -61 35 -65 67 -65 19 0 34 3 34 6 0 3 -16 35 -37 71 -33 60 -35 66 -19 75
26 14 47 72 40 107 -4 16 -17 40 -31 53 -21 20 -37 23 -119 26 l-94 4 0 -171z"/>
<path d="M650 350 l0 -170 110 0 110 0 0 30 0 30 -80 0 -80 0 0 45 0 45 60 0
60 0 0 30 0 30 -60 0 -60 0 0 35 0 35 80 0 80 0 0 30 0 30 -110 0 -110 0 0
-170z"/>
<path d="M1180 490 c0 -29 2 -30 45 -30 l45 0 0 -140 0 -140 35 0 35 0 0 140
0 140 45 0 c43 0 45 1 45 30 l0 30 -125 0 -125 0 0 -30z"/>
<path d="M1480 362 c-30 -86 -56 -163 -58 -169 -2 -8 8 -13 27 -13 27 0 32 5
42 40 l12 40 63 0 63 0 12 -40 c11 -36 15 -40 45 -40 l33 0 -45 128 c-26 70
-53 146 -61 170 -13 37 -18 42 -46 42 l-32 0 -55 -158z"/>
<path d="M1742 398 c4 -133 14 -167 60 -201 34 -26 126 -27 162 -3 52 34 61
60 65 198 l3 128 -36 0 -36 0 0 -118 c0 -144 -9 -162 -75 -162 -66 0 -75 18
-75 162 l0 118 -36 0 -36 0 4 -122z"/>
<path d="M2100 350 l0 -170 30 0 30 0 0 65 0 65 29 0 c25 0 34 -8 63 -62 32
-58 37 -63 72 -66 l38 -3 -38 69 -38 69 27 32 c18 22 27 44 27 67 0 77 -41
104 -160 104 l-80 0 0 -170z"/>
<path d="M2485 511 c-7 -12 -115 -317 -115 -325 0 -3 13 -6 30 -6 25 0 31 5
41 40 l12 40 63 0 63 0 12 -40 c11 -36 15 -40 45 -40 l33 0 -45 127 c-26 71
-53 147 -61 171 -13 36 -19 42 -43 42 -16 0 -31 -4 -35 -9z"/>
<path d="M2710 350 l0 -170 30 0 29 0 3 112 3 112 74 -112 c65 -99 77 -112
102 -112 l29 0 0 170 0 170 -35 0 -34 0 -3 -102 -3 -101 -68 101 c-60 92 -70
102 -97 102 l-30 0 0 -170z"/>
<path d="M3020 490 c0 -29 1 -30 50 -30 l50 0 0 -140 0 -140 30 0 30 0 0 140
0 140 50 0 c49 0 50 1 50 30 l0 30 -130 0 -130 0 0 -30z"/>
</g>
</svg>
